<svg width="160" height="160" viewBox="0 0 160 160" xmlns="http://www.w3.org/2000/svg">
  <defs>
    <linearGradient id="bg" x1="0" y1="0" x2="1" y2="1">
      <stop offset="0%" stop-color="#6C63FF"/>
      <stop offset="100%" stop-color="#4840C0"/>
    </linearGradient>
  </defs>
  <!-- Rounded square brand tile -->
  <rect width="160" height="160" rx="32" fill="url(#bg)"/>
  <!-- Shield -->
  <g transform="translate(80,68)">
    <path d="M-26,-33 L26,-33 L26,7 Q26,28 0,37 Q-26,28 -26,7 Z" fill="white" opacity="0.95"/>
    <path d="M-19,-26 L19,-26 L19,5 Q19,22 0,30 Q-19,22 -19,5 Z" fill="#4840C0" opacity="0.5"/>
    <path d="M-7,-1.5 L-7,-9 A7,7 0 0,1 7,-9 L7,-1.5" stroke="white" stroke-width="2" fill="none" stroke-linecap="round"/>
    <rect x="-11" y="-1.5" width="22" height="15" rx="3.5" fill="white" opacity="0.1"/>
    <rect x="-11" y="-1.5" width="22" height="15" rx="3.5" fill="none" stroke="white" stroke-width="1.8"/>
    <circle cx="0" cy="6" r="3" fill="white"/>
    <rect x="-1.2" y="8" width="2.4" height="4" rx="1" fill="white"/>
  </g>
  <!-- Wordmark -->
  <text x="80" y="128" text-anchor="middle" font-family="system-ui,-apple-system,'Segoe UI',sans-serif" font-size="22" font-weight="700" fill="white" letter-spacing="-0.5">Shielded</text>
  <text x="80" y="148" text-anchor="middle" font-family="system-ui,sans-serif" font-size="8.5" font-weight="500" fill="rgba(255,255,255,0.55)" letter-spacing="3">PRIVACY · ZK</text>
</svg>
