<svg width="32" height="32" viewBox="0 0 100 100" xmlns="http://www.w3.org/2000/svg" aria-hidden="true">
  <defs>
    <linearGradient id="shield-grad" x1="0" y1="0" x2="1" y2="1">
      <stop offset="0%" stop-color="#7A72F0"/>
      <stop offset="100%" stop-color="#4f46e5"/>
    </linearGradient>
  </defs>
  <g transform="translate(50,50)">
    <path d="M-31,-40 L31,-40 L31,8 Q31,33 0,43 Q-31,33 -31,8 Z" fill="url(#shield-grad)"/>
    <path d="M-24,-33 L24,-33 L24,6 Q24,27 0,37 Q-24,27 -24,6 Z" fill="#3730a3" opacity="0.45"/>
    <path d="M-8.5,-2 L-8.5,-10 A8.5,8.5 0 0,1 8.5,-10 L8.5,-2" stroke="currentColor" stroke-width="2.3" fill="none" stroke-linecap="round"/>
    <rect x="-13" y="-2" width="26" height="17" rx="4" fill="currentColor" opacity="0.15"/>
    <rect x="-13" y="-2" width="26" height="17" rx="4" fill="none" stroke="currentColor" stroke-width="1.9"/>
    <circle cx="0" cy="6.5" r="3.4" fill="currentColor"/>
    <rect x="-1.4" y="8.5" width="2.8" height="4.8" rx="1.1" fill="currentColor"/>
  </g>
</svg>
